<svg width="221" height="221" viewBox="0 0 221 221" fill="none" xmlns="http://www.w3.org/2000/svg">
<path d="M162.5 221C178.015 221 192.895 214.837 203.866 203.866C214.837 192.895 221 178.015 221 162.5C221 146.985 214.837 132.105 203.866 121.134C192.895 110.163 178.015 104 162.5 104C146.985 104 132.105 110.163 121.134 121.134C110.163 132.105 104 146.985 104 162.5C104 178.015 110.163 192.895 121.134 203.866C132.105 214.837 146.985 221 162.5 221ZM170.612 195.065C170.656 196.158 170.478 197.25 170.09 198.273C169.702 199.296 169.111 200.23 168.353 201.019C167.594 201.808 166.685 202.436 165.678 202.865C164.671 203.294 163.588 203.515 162.494 203.515C161.399 203.515 160.316 203.294 159.309 202.865C158.302 202.436 157.393 201.808 156.635 201.019C155.876 200.23 155.285 199.296 154.897 198.273C154.509 197.25 154.331 196.158 154.375 195.065C154.375 192.91 155.231 190.844 156.755 189.32C158.278 187.796 160.345 186.94 162.5 186.94C164.655 186.94 166.722 187.796 168.245 189.32C169.769 190.844 170.625 192.91 170.625 195.065M186.615 148.889C186.615 156.507 183.82 160.693 177.151 166.036L173.55 168.818C170.352 171.34 169.273 172.718 169.052 174.642L168.909 176.67C168.637 178.285 167.765 179.738 166.468 180.738C165.171 181.738 163.544 182.211 161.913 182.063C160.282 181.915 158.766 181.157 157.67 179.94C156.574 178.724 155.977 177.138 156 175.5C156 168.09 158.73 164.008 165.308 158.756L168.922 155.961C172.666 152.971 173.602 151.515 173.602 148.889C173.602 141.635 168.636 136.539 162.5 136.539C156.078 136.539 151.333 141.297 151.398 148.824C151.407 149.678 151.247 150.525 150.928 151.316C150.609 152.108 150.138 152.83 149.54 153.439C148.943 154.049 148.231 154.535 147.446 154.869C146.66 155.204 145.817 155.38 144.963 155.389C144.109 155.398 143.263 155.238 142.471 154.919C141.679 154.6 140.957 154.129 140.348 153.531C139.738 152.934 139.252 152.222 138.918 151.437C138.583 150.651 138.407 149.808 138.398 148.954C138.268 134.173 148.876 123.539 162.5 123.539C175.903 123.539 186.589 134.537 186.589 148.889M91 0C77.2087 0 63.9823 5.47856 54.2304 15.2304C44.4786 24.9823 39 38.2087 39 52C39 65.7913 44.4786 79.0177 54.2304 88.7696C63.9823 98.5215 77.2087 104 91 104C104.791 104 118.018 98.5215 127.77 88.7696C137.521 79.0177 143 65.7913 143 52C143 38.2087 137.521 24.9823 127.77 15.2304C118.018 5.47856 104.791 0 91 0ZM26.117 117C22.6928 116.985 19.2993 117.646 16.1313 118.945C12.9633 120.245 10.0833 122.158 7.65654 124.574C5.22981 126.99 3.3042 129.861 1.99027 133.023C0.676334 136.185 -3.46692e-05 139.576 1.33284e-09 143C1.33284e-09 164.983 10.829 181.558 27.755 192.361C44.421 202.982 66.885 208 91 208C96.3473 208 101.591 207.753 106.73 207.259C96.5269 194.575 90.9755 178.779 91 162.5C91 145.21 97.136 129.35 107.341 117H26.117Z" fill="#FFC107"/>
</svg>
