<svg width="541" height="552" viewBox="0 0 541 552" fill="none" xmlns="http://www.w3.org/2000/svg">
<path fill-rule="evenodd" clip-rule="evenodd" d="M293.46 0.000462471C350.91 0.255507 348.384 99.3533 393.088 135.438C433.75 168.259 511.093 147.478 534.219 194.337C556.733 239.952 512.085 290.269 492.719 337.307C475.067 380.179 458.538 422.196 426.575 455.782C388.605 495.679 347.788 537.624 293.46 546.679C234.633 556.484 159.194 554.168 123.665 506.267C86.9074 456.713 151.007 383.673 129.623 325.798C106.524 263.283 -18.6517 241.227 2.36866 177.983C23.4594 114.527 136.137 169.433 193.187 134.55C242.106 104.64 236.123 -0.254082 293.46 0.000462471Z" fill="#FFC107"/>
</svg>
