<svg width="530" height="648" viewBox="0 0 530 648" fill="none" xmlns="http://www.w3.org/2000/svg">
<path fill-rule="evenodd" clip-rule="evenodd" d="M249.986 0.301781C321 -2.37632 330.869 110.924 376.895 165.071C408.255 201.964 452.467 224.01 476.075 266.285C504.318 316.861 544.683 374.66 524.192 428.841C503.663 483.126 425.794 483.085 380.406 519.254C331.555 558.181 312.446 646.731 249.986 647.349C187.678 647.964 162.37 565.272 117.68 521.85C81.2953 486.499 30.7093 464.272 12.7339 416.834C-5.6544 368.306 -2.16025 311.882 20.4118 265.153C41.5424 221.408 98.0257 211.097 129.846 174.388C177.185 119.774 177.763 3.02546 249.986 0.301781Z" fill="#FFC107"/>
</svg>
