<svg width="287" height="287" viewBox="0 0 287 287" fill="none" xmlns="http://www.w3.org/2000/svg">
<path d="M41.8541 119.583H23.3187C20.927 119.583 19.1851 118.539 18.0929 116.45C17.0007 114.362 17.1482 112.317 18.5354 110.316L48.4312 67.5646C49.4277 66.3688 50.5757 65.9702 51.8752 66.3688C53.1747 66.7674 53.8204 67.7639 53.8124 69.3584V95.6667H72.3479C74.7395 95.6667 76.4815 96.715 77.5737 98.8117C78.6658 100.908 78.5184 102.949 77.1312 104.934L47.2354 147.685C46.2388 148.881 45.0908 149.28 43.7914 148.881C42.4919 148.483 41.8461 147.486 41.8541 145.892V119.583ZM81.3166 239.167C71.3513 239.167 62.8809 235.679 55.9052 228.703C48.9295 221.727 45.4416 213.257 45.4416 203.292C45.4416 198.309 46.5896 193.625 48.8856 189.241C51.1816 184.856 54.3187 181.069 58.2968 177.88L129.748 71.75H92.677C89.2888 71.75 86.4986 70.602 84.3062 68.306C82.1138 66.01 81.0177 63.1719 81.0177 59.7917C81.0177 56.4115 82.1657 53.5734 84.4617 51.2774C86.7577 48.9814 89.5958 47.8334 92.976 47.8334H200.302C204.288 47.8334 207.477 49.3282 209.869 52.3177C212.26 55.3073 212.958 58.6955 211.961 62.4823L204.188 95.6667H227.208C230.995 95.6667 234.583 96.5158 237.971 98.2138C241.359 99.9119 244.149 102.252 246.342 105.233L268.763 134.83C270.956 137.621 272.351 140.662 272.949 143.954C273.547 147.247 273.547 150.583 272.949 153.964L264.877 193.725C264.279 196.515 262.884 198.807 260.692 200.601C258.499 202.395 256.008 203.292 253.218 203.292H239.167C239.167 213.257 235.679 221.727 228.703 228.703C221.727 235.679 213.257 239.167 203.292 239.167C193.326 239.167 184.856 235.679 177.88 228.703C170.904 221.727 167.417 213.257 167.417 203.292H117.192C117.192 213.257 113.704 221.727 106.728 228.703C99.7524 235.679 91.2819 239.167 81.3166 239.167ZM83.7083 215.25C87.0965 215.25 89.9386 214.102 92.2346 211.806C94.5306 209.51 95.6746 206.672 95.6666 203.292C95.6586 199.911 94.5106 197.073 92.2226 194.777C89.9346 192.481 87.0965 191.333 83.7083 191.333C80.3201 191.333 77.482 192.481 75.1939 194.777C72.9059 197.073 71.7579 199.911 71.7499 203.292C71.742 206.672 72.89 209.514 75.1939 211.818C77.4979 214.122 80.336 215.266 83.7083 215.25ZM203.292 215.25C206.68 215.25 209.522 214.102 211.818 211.806C214.114 209.51 215.258 206.672 215.25 203.292C215.242 199.911 214.094 197.073 211.806 194.777C209.518 192.481 206.68 191.333 203.292 191.333C199.903 191.333 197.065 192.481 194.777 194.777C192.489 197.073 191.341 199.911 191.333 203.292C191.325 206.672 192.473 209.514 194.777 211.818C197.081 214.122 199.919 215.266 203.292 215.25ZM190.436 155.458H248.135L249.331 149.18L227.208 119.583H198.807L190.436 155.458Z" fill="#FFC107"/>
</svg>
