<svg width="254" height="237" viewBox="0 0 254 237" fill="none" xmlns="http://www.w3.org/2000/svg">
<g clip-path="url(#clip0_93_23)">
<path d="M78.4501 118.5C64.163 118.941 52.4775 124.584 43.3938 135.429H25.6672C18.4354 135.429 12.3502 133.643 7.41142 130.072C2.47267 126.501 0.0032959 121.277 0.0032959 114.4C0.0032959 83.2762 5.4712 67.7143 16.407 67.7143C16.9362 67.7143 18.8543 68.6401 22.1615 70.4916C25.4687 72.3432 29.7681 74.2168 35.0596 76.1124C40.3511 78.0081 45.5986 78.9559 50.8019 78.9559C56.7107 78.9559 62.5755 77.942 68.3962 75.9141C67.9552 79.1763 67.7347 82.0859 67.7347 84.6429C67.7347 96.8984 71.3065 108.184 78.4501 118.5ZM220.131 202.746C220.131 213.326 216.912 221.681 210.473 227.808C204.035 233.936 195.481 237 184.81 237H69.1899C58.5187 237 49.9641 233.936 43.526 227.808C37.088 221.681 33.869 213.326 33.869 202.746C33.869 198.073 34.0234 193.51 34.332 189.058C34.6407 184.605 35.258 179.8 36.1841 174.642C37.1101 169.484 38.2786 164.701 39.6897 160.292C41.1008 155.884 42.9969 151.586 45.3781 147.398C47.7593 143.21 50.4932 139.639 53.5799 136.685C56.6667 133.731 60.4369 131.373 64.8906 129.609C69.3443 127.846 74.261 126.964 79.6407 126.964C80.5226 126.964 82.4187 127.912 85.3291 129.808C88.2394 131.703 91.4584 133.819 94.9861 136.156C98.5138 138.492 103.232 140.609 109.141 142.504C115.05 144.4 121.003 145.348 127 145.348C132.997 145.348 138.95 144.4 144.859 142.504C150.768 140.609 155.486 138.492 159.013 136.156C162.541 133.819 165.76 131.703 168.67 129.808C171.581 127.912 173.477 126.964 174.359 126.964C179.739 126.964 184.655 127.846 189.109 129.609C193.563 131.373 197.333 133.731 200.42 136.685C203.506 139.639 206.24 143.21 208.621 147.398C211.003 151.586 212.899 155.884 214.31 160.292C215.721 164.701 216.889 169.484 217.815 174.642C218.741 179.8 219.359 184.605 219.668 189.058C219.976 193.51 220.131 198.073 220.131 202.746ZM84.6676 33.8571C84.6676 43.2031 81.3604 51.1825 74.746 57.7952C68.1316 64.4079 60.1502 67.7143 50.8019 67.7143C41.4535 67.7143 33.4722 64.4079 26.8578 57.7952C20.2434 51.1825 16.9362 43.2031 16.9362 33.8571C16.9362 24.5112 20.2434 16.5318 26.8578 9.91908C33.4722 3.30636 41.4535 0 50.8019 0C60.1502 0 68.1316 3.30636 74.746 9.91908C81.3604 16.5318 84.6676 24.5112 84.6676 33.8571ZM177.798 84.6429C177.798 98.6618 172.838 110.631 162.916 120.55C152.994 130.469 141.022 135.429 127 135.429C112.977 135.429 101.005 130.469 91.0836 120.55C81.162 110.631 76.2012 98.6618 76.2012 84.6429C76.2012 70.6239 81.162 58.6549 91.0836 48.7358C101.005 38.8167 112.977 33.8571 127 33.8571C141.022 33.8571 152.994 38.8167 162.916 48.7358C172.838 58.6549 177.798 70.6239 177.798 84.6429ZM253.996 114.4C253.996 121.277 251.527 126.501 246.588 130.072C241.649 133.643 235.564 135.429 228.332 135.429H210.606C201.522 124.584 189.837 118.941 175.549 118.5C182.693 108.184 186.265 96.8984 186.265 84.6429C186.265 82.0859 186.044 79.1763 185.603 75.9141C191.424 77.942 197.289 78.9559 203.198 78.9559C208.401 78.9559 213.648 78.0081 218.94 76.1124C224.231 74.2168 228.531 72.3432 231.838 70.4916C235.145 68.6401 237.063 67.7143 237.593 67.7143C248.528 67.7143 253.996 83.2762 253.996 114.4ZM237.063 33.8571C237.063 43.2031 233.756 51.1825 227.142 57.7952C220.527 64.4079 212.546 67.7143 203.198 67.7143C193.849 67.7143 185.868 64.4079 179.254 57.7952C172.639 51.1825 169.332 43.2031 169.332 33.8571C169.332 24.5112 172.639 16.5318 179.254 9.91908C185.868 3.30636 193.849 0 203.198 0C212.546 0 220.527 3.30636 227.142 9.91908C233.756 16.5318 237.063 24.5112 237.063 33.8571Z" fill="#D32F2F"/>
</g>
<defs>
<clipPath id="clip0_93_23">
<rect width="254" height="237" fill="white"/>
</clipPath>
</defs>
</svg>
