<svg width="232" height="232" viewBox="0 0 232 232" fill="none" xmlns="http://www.w3.org/2000/svg">
<path d="M38.6667 203C33.35 203 28.8003 201.109 25.0174 197.326C21.2345 193.543 19.3398 188.99 19.3334 183.667V77.3334C19.3334 72.0167 21.228 67.4669 25.0174 63.684C28.8067 59.9012 33.3565 58.0065 38.6667 58H77.3334V38.6667C77.3334 33.35 79.228 28.8003 83.0174 25.0174C86.8067 21.2345 91.3565 19.3398 96.6667 19.3334H135.333C140.65 19.3334 145.203 21.228 148.992 25.0174C152.782 28.8067 154.673 33.3565 154.667 38.6667V58H193.333C198.65 58 203.203 59.8947 206.992 63.684C210.782 67.4734 212.673 72.0232 212.667 77.3334V183.667C212.667 188.983 210.775 193.536 206.992 197.326C203.209 201.115 198.656 203.006 193.333 203H38.6667ZM96.6667 58H135.333V38.6667H96.6667V58Z" fill="#FFC107"/>
</svg>
