<svg width="738" height="614" viewBox="0 0 738 614" fill="none" xmlns="http://www.w3.org/2000/svg">
<path fill-rule="evenodd" clip-rule="evenodd" d="M363.968 1.344C418.308 -2.26856 472.301 0.511745 522.858 20.7589C581.287 44.1588 639.518 73.9787 675.052 125.929C713.735 182.481 757.123 258.399 727.749 320.3C696.467 386.219 585.66 363.572 536.637 417.615C489.571 469.499 530.802 587.78 464.528 610.472C399.631 632.692 352.943 538.052 295.826 500.068C257.503 474.582 223.28 447.936 184.016 423.925C123.078 386.661 16.8697 389.87 1.5347 320.106C-13.3141 252.554 83.434 213.887 125.835 159.245C157.115 118.935 175.576 69.2155 218.099 41.0193C260.963 12.597 312.65 4.75563 363.968 1.344Z" fill="#FFC107"/>
</svg>
