<svg width="601" height="645" viewBox="0 0 601 645" fill="none" xmlns="http://www.w3.org/2000/svg">
<path fill-rule="evenodd" clip-rule="evenodd" d="M344.529 21.7773C401.85 10.2097 469.757 -18.1997 516.343 17.1459C563.603 53.0034 548.87 127.644 560.683 185.78C569.712 230.213 573.196 272.847 577.473 317.987C583.244 378.9 617.902 442.817 590.206 497.375C561.996 552.947 494.098 573.57 436.122 596.434C373.387 621.175 302.233 664.476 241.66 634.831C179.686 604.498 189.871 509.675 147.535 455.19C108.681 405.187 26.391 393.329 7.13134 333.005C-12.3169 272.09 9.98985 199.83 50.1085 150.037C87.9181 103.11 156.914 102.598 212.163 78.5299C257.085 58.9607 296.498 31.4699 344.529 21.7773Z" fill="#D32F2F"/>
</svg>
