<svg width="205" height="151" viewBox="0 0 205 151" fill="none" xmlns="http://www.w3.org/2000/svg">
<g filter="url(#filter0_d_99_5)">
<path d="M129.125 89.25C105.429 89.25 58.125 101.054 58.125 124.75V142.5H200.125V124.75C200.125 101.054 152.821 89.25 129.125 89.25ZM49.25 53.75V27.125H31.5V53.75H4.875V71.5H31.5V98.125H49.25V71.5H75.875V53.75M129.125 71.5C138.54 71.5 147.57 67.7598 154.227 61.1023C160.885 54.4448 164.625 45.4152 164.625 36C164.625 26.5848 160.885 17.5552 154.227 10.8977C147.57 4.24017 138.54 0.5 129.125 0.5C119.71 0.5 110.68 4.24017 104.023 10.8977C97.3652 17.5552 93.625 26.5848 93.625 36C93.625 45.4152 97.3652 54.4448 104.023 61.1023C110.68 67.7598 119.71 71.5 129.125 71.5Z" fill="#D32F2F"/>
</g>
<defs>
<filter id="filter0_d_99_5" x="0.875" y="0.5" width="203.25" height="150" filterUnits="userSpaceOnUse" color-interpolation-filters="sRGB">
<feFlood flood-opacity="0" result="BackgroundImageFix"/>
<feColorMatrix in="SourceAlpha" type="matrix" values="0 0 0 0 0 0 0 0 0 0 0 0 0 0 0 0 0 0 127 0" result="hardAlpha"/>
<feOffset dy="4"/>
<feGaussianBlur stdDeviation="2"/>
<feComposite in2="hardAlpha" operator="out"/>
<feColorMatrix type="matrix" values="0 0 0 0 0 0 0 0 0 0 0 0 0 0 0 0 0 0 0.25 0"/>
<feBlend mode="normal" in2="BackgroundImageFix" result="effect1_dropShadow_99_5"/>
<feBlend mode="normal" in="SourceGraphic" in2="effect1_dropShadow_99_5" result="shape"/>
</filter>
</defs>
</svg>
