<?xml version="1.0" standalone="no"?>
<!DOCTYPE svg PUBLIC "-//W3C//DTD SVG 20010904//EN"
 "http://www.w3.org/TR/2001/REC-SVG-20010904/DTD/svg10.dtd">
<svg version="1.0" xmlns="http://www.w3.org/2000/svg"
 width="6000.000000pt" height="3375.000000pt" viewBox="0 0 6000.000000 3375.000000"
 preserveAspectRatio="xMidYMid meet">

<g transform="translate(0.000000,3375.000000) scale(0.100000,-0.100000)"
fill="#000000" stroke="none">
<path d="M27355 32544 c-418 -21 -1828 -190 -3255 -390 -1953 -273 -4026 -635
-5845 -1020 -479 -101 -687 -154 -940 -239 -484 -162 -909 -368 -1323 -641
-387 -255 -664 -483 -977 -806 -967 -996 -1541 -2306 -1614 -3683 -9 -173 1
-618 19 -805 6 -63 35 -306 66 -540 269 -2074 623 -4118 1075 -6195 117 -539
168 -741 248 -984 498 -1502 1584 -2730 3006 -3398 616 -290 1293 -468 1985
-522 103 -9 896 -24 1698 -34 l173 -2 268 -625 c671 -1564 1140 -2601 1507
-3330 276 -551 439 -810 507 -810 7 0 25 12 39 28 189 197 529 1730 955 4297
53 319 99 583 102 587 4 4 141 19 305 33 165 13 301 27 304 29 2 3 -1 63 -7
133 -91 1045 -151 2101 -191 3378 -17 521 -23 1925 -11 2405 12 505 31 696
102 1055 276 1386 1049 2608 2194 3465 838 628 1827 1012 2885 1120 278 28
570 31 1115 10 529 -20 954 -40 1328 -61 109 -7 199 -10 201 -8 4 5 23 627 37
1249 15 605 5 906 -41 1285 -230 1899 -1418 3570 -3145 4425 -500 247 -984
408 -1520 505 -226 41 -295 50 -525 70 -173 15 -590 26 -725 19z m-3715 -3118
c1024 -124 1862 -558 2395 -1241 361 -463 563 -986 640 -1660 8 -71 21 -173
30 -225 43 -269 57 -648 35 -900 -47 -525 -215 -1009 -523 -1515 -132 -216
-275 -420 -597 -850 -407 -545 -406 -544 -540 -745 -251 -378 -404 -670 -539
-1034 -87 -234 -123 -418 -141 -729 -12 -191 -2 -445 26 -687 17 -148 14 -219
-17 -307 -57 -167 -213 -302 -385 -332 -185 -33 -1381 -183 -1454 -183 -144 0
-263 53 -368 165 -100 107 -126 194 -176 598 -92 739 -94 1272 -6 1689 11 52
29 142 41 200 59 297 217 649 442 985 160 239 251 356 621 794 525 622 712
882 867 1206 104 219 160 391 201 624 18 103 22 164 22 336 -1 190 -3 223 -28
340 -72 346 -212 614 -432 825 -299 288 -745 438 -1184 400 -295 -26 -567
-112 -802 -256 -269 -164 -480 -383 -631 -655 -20 -36 -75 -162 -122 -280
-155 -384 -238 -526 -363 -621 -69 -53 -166 -88 -241 -88 -77 0 -158 23 -606
165 -679 215 -727 232 -791 274 -241 155 -298 423 -173 802 92 276 252 561
624 1109 212 313 279 396 474 590 691 688 1693 1126 2786 1220 163 14 759 5
915 -14z m369 -11601 c245 -47 455 -154 628 -318 176 -167 296 -377 359 -631
35 -137 44 -377 20 -516 -85 -486 -422 -842 -920 -970 -376 -96 -756 -100
-1028 -10 -419 139 -713 478 -799 923 -24 121 -25 337 -4 460 92 527 485 918
1043 1037 239 51 515 61 701 25z"/>
</g>
</svg>
